<svg xmlns="http://www.w3.org/2000/svg" viewBox="0 0 512 512">
    <defs>
        <style>.cls-1{fill:#211915;}</style>
    </defs>
    <title>50-Computer-hardware-Line-Icons</title>
    <g id="_33" data-name="33">
        <path class="cls-1" d="M347.38,397.63H329.46a6.84,6.84,0,0,1-6.83-6.84v-5.66a2.5,2.5,0,0,1,5,0v5.66a1.84,1.84,0,0,0,1.83,1.84h17.92a1.84,1.84,0,0,0,1.84-1.84v-5.66a2.5,2.5,0,0,1,5,0v5.66A6.85,6.85,0,0,1,347.38,397.63Z"/>
        <path class="cls-1" d="M437.94,397.63H420a6.84,6.84,0,0,1-6.83-6.84v-5.66a2.5,2.5,0,0,1,5,0v5.66a1.84,1.84,0,0,0,1.83,1.84h17.93a1.84,1.84,0,0,0,1.83-1.84v-5.66a2.5,2.5,0,0,1,5,0v5.66A6.84,6.84,0,0,1,437.94,397.63Z"/>
        <path class="cls-1" d="M442.27,387.63H325.13a16.09,16.09,0,0,1-16.07-16.06V135.24a2.5,2.5,0,0,1,5,0V371.57a11.08,11.08,0,0,0,11.07,11.06H442.27a11.07,11.07,0,0,0,11.06-11.06V135.24a11.07,11.07,0,0,0-11.06-11.06H341a2.5,2.5,0,0,1,0-5H442.27a16.07,16.07,0,0,1,16.06,16.06V371.57A16.08,16.08,0,0,1,442.27,387.63Z"/>
        <path class="cls-1" d="M383.7,373.86a34.48,34.48,0,1,1,34.48-34.48,2.5,2.5,0,0,1-5,0,29.47,29.47,0,1,0-14.36,25.31,2.5,2.5,0,1,1,2.57,4.29A34.46,34.46,0,0,1,383.7,373.86Z"/>
        <path class="cls-1" d="M383.7,364.62A25.21,25.21,0,0,1,362,326.53a7.5,7.5,0,0,1,12.9,7.65,10.24,10.24,0,1,0,17.59,0,7.5,7.5,0,0,1,12.9-7.65,25.21,25.21,0,0,1-21.69,38.09Zm-15.24-36.76a2.5,2.5,0,0,0-2.16,1.22,20.24,20.24,0,1,0,34.79,0,2.5,2.5,0,0,0-4.3,2.55,15.24,15.24,0,1,1-26.19,0,2.49,2.49,0,0,0-.87-3.42A2.46,2.46,0,0,0,368.46,327.86Z"/>
        <path class="cls-1" d="M383.7,337.71a7.51,7.51,0,0,1-7.5-7.5V319.92a7.5,7.5,0,0,1,15,0v10.29A7.52,7.52,0,0,1,383.7,337.71Zm0-20.29a2.51,2.51,0,0,0-2.5,2.5v10.29a2.5,2.5,0,0,0,5,0V319.92A2.51,2.51,0,0,0,383.7,317.42Z"/>
        <path class="cls-1" d="M440.94,295.62H326.45a2.5,2.5,0,0,1-2.5-2.5V276.18a2.5,2.5,0,0,1,2.5-2.5h48.36a2.5,2.5,0,0,1,0,5H329v11.94H438.44V278.68H421a2.5,2.5,0,0,1,0-5h19.93a2.5,2.5,0,0,1,2.5,2.5v16.94A2.5,2.5,0,0,1,440.94,295.62Z"/>
        <path class="cls-1" d="M455.84,263.71a2.48,2.48,0,0,1-.66-.08l-51.12-13.95a2.49,2.49,0,0,1-1.84-2.41V121.67a2.5,2.5,0,1,1,5,0V245.36l49.27,13.44a2.5,2.5,0,0,1-.65,4.91Z"/>
        <path class="cls-1" d="M455.84,244a2.48,2.48,0,0,1-.66-.08l-51.12-14a2.5,2.5,0,0,1,1.32-4.82l51.11,13.94a2.5,2.5,0,0,1-.65,4.91Z"/>
        <path class="cls-1" d="M455.84,224.38a2.5,2.5,0,0,1-.66-.09l-51.12-13.95a2.5,2.5,0,0,1,1.32-4.82l51.11,13.94a2.5,2.5,0,0,1-.65,4.92Z"/>
        <path class="cls-1" d="M455.84,204.71a2.5,2.5,0,0,1-.66-.09l-51.12-14a2.5,2.5,0,1,1,1.32-4.82l51.11,13.94a2.5,2.5,0,0,1-.65,4.92Z"/>
        <path class="cls-1" d="M455.84,165.37a2.5,2.5,0,0,1-.66-.09l-51.12-13.95a2.5,2.5,0,1,1,1.32-4.82l51.11,13.94a2.5,2.5,0,0,1-.65,4.92Z"/>
        <path class="cls-1" d="M311.56,263.71a2.5,2.5,0,0,1-.66-4.91l49.28-13.44V121.67a2.5,2.5,0,0,1,5,0v125.6a2.51,2.51,0,0,1-1.84,2.41l-51.12,13.95A2.48,2.48,0,0,1,311.56,263.71Z"/>
        <path class="cls-1" d="M311.56,244a2.5,2.5,0,0,1-.66-4.91L362,225.19a2.5,2.5,0,0,1,1.32,4.82l-51.12,14A2.48,2.48,0,0,1,311.56,244Z"/>
        <path class="cls-1" d="M311.56,204.71a2.51,2.51,0,0,1-.66-4.92L362,185.85a2.5,2.5,0,0,1,1.32,4.82l-51.12,14A2.5,2.5,0,0,1,311.56,204.71Z"/>
        <path class="cls-1" d="M311.56,224.38a2.51,2.51,0,0,1-.66-4.92L362,205.52a2.5,2.5,0,0,1,1.32,4.82l-51.12,13.95A2.5,2.5,0,0,1,311.56,224.38Z"/>
        <path class="cls-1" d="M311.56,165.37a2.51,2.51,0,0,1-.66-4.92L362,146.51a2.5,2.5,0,0,1,1.32,4.82l-51.12,13.95A2.5,2.5,0,0,1,311.56,165.37Z"/>
        <path class="cls-1" d="M311.56,185a2.51,2.51,0,0,1-.66-4.92L362,166.18a2.5,2.5,0,0,1,1.32,4.82L312.22,185A2.5,2.5,0,0,1,311.56,185Z"/>
        <path class="cls-1" d="M266.83,397.63H64.5c-2.84,0-5.06-2.8-5.06-6.36s2.12-6.35,4.93-6.49l21.24-1.12A2.47,2.47,0,0,1,88.24,386a2.5,2.5,0,0,1-2.36,2.62l-21,1.11a2.61,2.61,0,0,0-.41,1.51,2.48,2.48,0,0,0,.34,1.36H266.55a2.48,2.48,0,0,0,.34-1.36,2.61,2.61,0,0,0-.41-1.51l-76.39-4a2.51,2.51,0,0,1-2.37-2.5V349.19a2.5,2.5,0,0,1,5,0v31.69l74.24,3.9c2.81.14,4.93,2.93,4.93,6.49S269.67,397.63,266.83,397.63Z"/>
        <path class="cls-1" d="M124.91,386.6a2.5,2.5,0,0,1-.13-5l13.82-.72V349.19a2.5,2.5,0,0,1,5,0v34.06a2.5,2.5,0,0,1-2.36,2.5l-16.2.85Z"/>
        <path class="cls-1" d="M286.16,351.69H260.71a2.5,2.5,0,0,1,0-5h25.45a2.9,2.9,0,0,0,2.9-2.9V187.64a2.9,2.9,0,0,0-2.9-2.89h-241a2.91,2.91,0,0,0-2.91,2.89V343.79a2.91,2.91,0,0,0,2.91,2.9H218.67a2.5,2.5,0,1,1,0,5H45.18a7.91,7.91,0,0,1-7.91-7.9V187.64a7.91,7.91,0,0,1,7.91-7.89h241a7.9,7.9,0,0,1,7.9,7.89V343.79A7.9,7.9,0,0,1,286.16,351.69Z"/>
        <path class="cls-1" d="M276.34,332.69H55a2.5,2.5,0,0,1-2.5-2.5V194.28a2.5,2.5,0,0,1,2.5-2.5H81.36a2.5,2.5,0,0,1,0,5H57.49V327.69H273.84V196.78H128.19a2.5,2.5,0,0,1,0-5H276.34a2.49,2.49,0,0,1,2.5,2.5V330.19A2.49,2.49,0,0,1,276.34,332.69Z"/>
    </g>
</svg>